<?xml version="1.0" encoding="UTF-8"?>
<svg xmlns="http://www.w3.org/2000/svg" viewBox="0 0 682 528" role="img" aria-label="icon">
  <path d="M 50 361 L 50 449 L 186 449 L 186 361 Z M 65 409 L 66 408 L 121 408 L 122 409 L 122 432 L 121 433 L 66 433 L 65 432 Z M 65 385 L 66 384 L 106 384 L 107 385 L 153 385 L 154 384 L 161 384 L 162 385 L 162 401 L 161 402 L 66 402 L 65 401 Z M 259 289 L 259 376 L 396 376 L 396 289 Z M 275 345 L 276 344 L 331 344 L 332 345 L 332 360 L 331 361 L 277 361 L 275 359 Z M 275 313 L 276 312 L 371 312 L 372 313 L 372 328 L 371 329 L 276 329 L 275 328 Z M 469 176 L 469 264 L 605 264 L 605 176 Z M 484 224 L 485 223 L 540 223 L 541 224 L 541 248 L 540 249 L 485 249 L 484 248 Z M 484 193 L 485 192 L 581 192 L 582 193 L 582 216 L 581 217 L 485 217 L 484 216 Z M 259 176 L 259 264 L 395 264 L 396 263 L 396 176 Z M 282 225 L 284 223 L 322 223 L 324 225 L 324 232 L 323 233 L 283 233 L 282 232 Z M 275 193 L 276 192 L 371 192 L 372 193 L 372 216 L 371 217 L 276 217 L 275 216 Z M 50 176 L 50 336 L 186 336 L 186 176 Z M 65 224 L 66 223 L 129 223 L 131 225 L 131 247 L 129 249 L 66 249 L 65 248 Z M 65 193 L 66 192 L 170 192 L 171 193 L 171 216 L 170 217 L 66 217 L 65 216 Z M 267 72 L 267 95 L 387 95 L 387 72 Z M 485 71 L 485 87 L 581 87 L 581 71 Z M 107 71 L 107 95 L 153 95 L 153 71 Z M 21 127 L 21 144 L 219 145 L 219 489 L 234 489 L 235 144 L 420 145 L 420 489 L 436 489 L 436 145 L 634 143 L 634 127 L 437 127 L 436 39 L 420 39 L 419 127 L 235 127 L 234 39 L 219 39 L 218 127 Z" fill="currentColor" fill-rule="evenodd" />
</svg>
